<svg xmlns="http://www.w3.org/2000/svg" viewBox="0 0 20 14">
  <defs>
    <polygon id="star" fill="#fff" points="0,-0.28 0.063,-0.087 0.266,-0.087 0.102,0.033 0.165,0.227 0,0.107 -0.165,0.227 -0.102,0.033 -0.266,-0.087 -0.063,-0.087"/>
  </defs>
  <!-- 13 stripes: red base + 6 white stripes -->
  <rect width="20" height="14" fill="#B22234"/>
  <rect y="1.077"  width="20" height="1.077" fill="#fff"/>
  <rect y="3.231"  width="20" height="1.077" fill="#fff"/>
  <rect y="5.385"  width="20" height="1.077" fill="#fff"/>
  <rect y="7.538"  width="20" height="1.077" fill="#fff"/>
  <rect y="9.692"  width="20" height="1.077" fill="#fff"/>
  <rect y="11.846" width="20" height="1.077" fill="#fff"/>
  <!-- Blue canton (union) -->
  <rect width="8" height="7.538" fill="#3C3B6E"/>
  <!-- 50 stars: 5 rows of 6, 4 rows of 5 -->
  <use href="#star" transform="translate(0.7,0.44)"/>
  <use href="#star" transform="translate(1.9,0.44)"/>
  <use href="#star" transform="translate(3.1,0.44)"/>
  <use href="#star" transform="translate(4.3,0.44)"/>
  <use href="#star" transform="translate(5.5,0.44)"/>
  <use href="#star" transform="translate(6.7,0.44)"/>

  <use href="#star" transform="translate(1.3,1.28)"/>
  <use href="#star" transform="translate(2.5,1.28)"/>
  <use href="#star" transform="translate(3.7,1.28)"/>
  <use href="#star" transform="translate(4.9,1.28)"/>
  <use href="#star" transform="translate(6.1,1.28)"/>

  <use href="#star" transform="translate(0.7,2.12)"/>
  <use href="#star" transform="translate(1.9,2.12)"/>
  <use href="#star" transform="translate(3.1,2.12)"/>
  <use href="#star" transform="translate(4.3,2.12)"/>
  <use href="#star" transform="translate(5.5,2.12)"/>
  <use href="#star" transform="translate(6.7,2.12)"/>

  <use href="#star" transform="translate(1.3,2.96)"/>
  <use href="#star" transform="translate(2.5,2.96)"/>
  <use href="#star" transform="translate(3.7,2.96)"/>
  <use href="#star" transform="translate(4.9,2.96)"/>
  <use href="#star" transform="translate(6.1,2.96)"/>

  <use href="#star" transform="translate(0.7,3.8)"/>
  <use href="#star" transform="translate(1.9,3.8)"/>
  <use href="#star" transform="translate(3.1,3.8)"/>
  <use href="#star" transform="translate(4.3,3.8)"/>
  <use href="#star" transform="translate(5.5,3.8)"/>
  <use href="#star" transform="translate(6.7,3.8)"/>

  <use href="#star" transform="translate(1.3,4.64)"/>
  <use href="#star" transform="translate(2.5,4.64)"/>
  <use href="#star" transform="translate(3.7,4.64)"/>
  <use href="#star" transform="translate(4.9,4.64)"/>
  <use href="#star" transform="translate(6.1,4.64)"/>

  <use href="#star" transform="translate(0.7,5.48)"/>
  <use href="#star" transform="translate(1.9,5.48)"/>
  <use href="#star" transform="translate(3.1,5.48)"/>
  <use href="#star" transform="translate(4.3,5.48)"/>
  <use href="#star" transform="translate(5.5,5.48)"/>
  <use href="#star" transform="translate(6.7,5.48)"/>

  <use href="#star" transform="translate(1.3,6.32)"/>
  <use href="#star" transform="translate(2.5,6.32)"/>
  <use href="#star" transform="translate(3.7,6.32)"/>
  <use href="#star" transform="translate(4.9,6.32)"/>
  <use href="#star" transform="translate(6.1,6.32)"/>

  <use href="#star" transform="translate(0.7,7.16)"/>
  <use href="#star" transform="translate(1.9,7.16)"/>
  <use href="#star" transform="translate(3.1,7.16)"/>
  <use href="#star" transform="translate(4.3,7.16)"/>
  <use href="#star" transform="translate(5.5,7.16)"/>
  <use href="#star" transform="translate(6.7,7.16)"/>
</svg>
